<svg xmlns="http://www.w3.org/2000/svg" width="50" zoomAndPan="magnify" viewBox="0 0 37.5 187.500001" height="250" preserveAspectRatio="xMidYMid meet" version="1.0"><defs><clipPath id="4209365e09"><path d="M 0 0.988281 L 37.007812 0.988281 L 37.007812 186.019531 L 0 186.019531 Z M 0 0.988281 " clip-rule="nonzero"/></clipPath><clipPath id="b806dad2da"><path d="M 18.503906 0.988281 L 0 186.019531 L 37.007812 186.019531 Z M 18.503906 0.988281 " clip-rule="nonzero"/></clipPath></defs><g clip-path="url(#4209365e09)"><g clip-path="url(#b806dad2da)"><path fill="#00ff19" d="M 20.269531 5.625 L 20.050781 7.835938 L 15.632812 7.394531 L 15.851562 5.183594 Z M 19.828125 10.046875 L 19.609375 12.253906 L 15.1875 11.8125 L 15.410156 9.601562 Z M 19.386719 14.464844 L 19.167969 16.671875 L 14.746094 16.230469 L 14.96875 14.023438 Z M 18.945312 18.882812 L 18.722656 21.09375 L 14.304688 20.648438 L 14.527344 18.441406 Z M 18.503906 23.300781 L 18.28125 25.511719 L 13.863281 25.070312 L 14.085938 22.859375 Z M 18.0625 27.71875 L 17.839844 29.929688 L 13.421875 29.488281 L 13.644531 27.277344 Z M 17.621094 32.140625 L 17.398438 34.347656 L 12.980469 33.90625 L 13.199219 31.695312 Z M 17.175781 36.558594 L 16.957031 38.765625 L 12.539062 38.324219 L 12.757812 36.117188 Z M 16.734375 40.976562 L 16.515625 43.1875 L 12.097656 42.742188 L 12.316406 40.535156 Z M 16.292969 45.394531 L 16.074219 47.605469 L 11.652344 47.164062 L 11.875 44.953125 Z M 15.851562 49.8125 L 15.632812 52.023438 L 11.210938 51.582031 L 11.433594 49.371094 Z M 15.410156 54.234375 L 15.1875 56.441406 L 10.769531 56 L 10.992188 53.789062 Z M 14.96875 58.652344 L 14.746094 60.859375 L 10.328125 60.417969 L 10.550781 58.210938 Z M 14.527344 63.070312 L 14.304688 65.28125 L 9.886719 64.835938 L 10.109375 62.628906 Z M 14.085938 67.488281 L 13.863281 69.699219 L 9.445312 69.257812 L 9.664062 67.046875 Z M 13.644531 71.90625 L 13.421875 74.117188 L 9.003906 73.675781 L 9.222656 71.464844 Z M 13.199219 76.328125 L 12.980469 78.535156 L 8.5625 78.09375 L 8.78125 75.882812 Z M 12.757812 80.746094 L 12.539062 82.953125 L 8.121094 82.511719 L 8.339844 80.304688 Z M 12.316406 85.164062 L 12.097656 87.375 L 7.675781 86.929688 L 7.898438 84.722656 Z M 11.875 89.582031 L 11.652344 91.792969 L 7.234375 91.351562 L 7.457031 89.140625 Z M 11.433594 94 L 11.210938 96.210938 L 6.792969 95.769531 L 7.015625 93.558594 Z M 10.992188 98.421875 L 10.769531 100.628906 L 6.351562 100.1875 L 6.574219 97.976562 Z M 10.550781 102.839844 L 10.328125 105.046875 L 5.910156 104.605469 L 6.128906 102.398438 Z M 10.109375 107.257812 L 9.886719 109.46875 L 5.46875 109.023438 L 5.6875 106.816406 Z M 9.664062 111.675781 L 9.445312 113.886719 L 5.027344 113.445312 L 5.246094 111.234375 Z M 9.222656 116.09375 L 9.003906 118.304688 L 4.585938 117.863281 L 4.804688 115.652344 Z M 8.78125 120.515625 L 8.5625 122.722656 L 4.140625 122.28125 L 4.363281 120.070312 Z M 8.339844 124.933594 L 8.121094 127.140625 L 3.699219 126.699219 L 3.921875 124.492188 Z M 7.898438 129.351562 L 7.675781 131.5625 L 3.257812 131.117188 L 3.480469 128.910156 Z M 7.457031 133.769531 L 7.234375 135.980469 L 2.816406 135.539062 L 3.039062 133.328125 Z M 7.015625 138.1875 L 6.792969 140.398438 L 2.375 139.957031 L 2.597656 137.746094 Z M 6.574219 142.609375 L 6.351562 144.816406 L 1.933594 144.375 L 2.152344 142.164062 Z M 6.128906 147.027344 L 5.910156 149.234375 L 1.492188 148.792969 L 1.710938 146.585938 Z M 5.6875 151.445312 L 5.46875 153.65625 L 1.050781 153.210938 L 1.269531 151.003906 Z M 5.246094 155.863281 L 5.027344 158.074219 L 0.605469 157.632812 L 0.828125 155.421875 Z M 4.804688 160.28125 L 4.585938 162.492188 L 0.164062 162.050781 L 0.386719 159.839844 Z M 4.363281 164.703125 L 4.140625 166.910156 L -0.277344 166.46875 L -0.0546875 164.257812 Z M 3.921875 169.121094 L 3.699219 171.328125 L -0.71875 170.886719 L -0.496094 168.679688 Z M 3.480469 173.539062 L 3.257812 175.75 L -1.160156 175.304688 L -0.9375 173.097656 Z M 3.039062 177.957031 L 2.816406 180.167969 L -1.601562 179.726562 L -1.382812 177.515625 Z M 2.597656 182.375 L 2.375 184.585938 L -2.042969 184.144531 L -1.824219 181.933594 Z M 0.558594 183.800781 L 2.777344 183.800781 L 2.777344 188.238281 L 0.558594 188.238281 Z M 5 183.800781 L 7.21875 183.800781 L 7.21875 188.238281 L 5 188.238281 Z M 9.4375 183.800781 L 11.660156 183.800781 L 11.660156 188.238281 L 9.4375 188.238281 Z M 13.878906 183.800781 L 16.101562 183.800781 L 16.101562 188.238281 L 13.878906 188.238281 Z M 18.320312 183.800781 L 20.539062 183.800781 L 20.539062 188.238281 L 18.320312 188.238281 Z M 22.761719 183.800781 L 24.980469 183.800781 L 24.980469 188.238281 L 22.761719 188.238281 Z M 27.203125 183.800781 L 29.421875 183.800781 L 29.421875 188.238281 L 27.203125 188.238281 Z M 31.644531 183.800781 L 33.863281 183.800781 L 33.863281 188.238281 L 31.644531 188.238281 Z M 36.082031 183.800781 L 37.007812 183.800781 L 37.007812 186.019531 L 34.796875 186.242188 L 34.667969 184.949219 L 39.085938 184.507812 L 39.460938 188.238281 L 36.082031 188.238281 Z M 34.445312 182.738281 L 34.226562 180.53125 L 38.644531 180.089844 L 38.867188 182.296875 Z M 34.003906 178.320312 L 33.785156 176.113281 L 38.203125 175.671875 L 38.425781 177.878906 Z M 33.5625 173.902344 L 33.34375 171.691406 L 37.761719 171.25 L 37.980469 173.460938 Z M 33.121094 169.484375 L 32.902344 167.273438 L 37.320312 166.832031 L 37.539062 169.042969 Z M 32.679688 165.066406 L 32.457031 162.855469 L 36.878906 162.414062 L 37.097656 164.625 Z M 32.238281 160.644531 L 32.015625 158.4375 L 36.4375 157.996094 L 36.65625 160.203125 Z M 31.796875 156.226562 L 31.574219 154.019531 L 35.992188 153.578125 L 36.214844 155.785156 Z M 31.355469 151.808594 L 31.132812 149.597656 L 35.550781 149.15625 L 35.773438 151.367188 Z M 30.914062 147.390625 L 30.691406 145.179688 L 35.109375 144.738281 L 35.332031 146.949219 Z M 30.46875 142.972656 L 30.25 140.761719 L 34.667969 140.320312 L 34.890625 142.53125 Z M 30.027344 138.550781 L 29.808594 136.34375 L 34.226562 135.902344 L 34.445312 138.109375 Z M 29.585938 134.132812 L 29.367188 131.925781 L 33.785156 131.484375 L 34.003906 133.691406 Z M 29.144531 129.714844 L 28.921875 127.503906 L 33.34375 127.0625 L 33.5625 129.273438 Z M 28.703125 125.296875 L 28.480469 123.085938 L 32.902344 122.644531 L 33.121094 124.855469 Z M 28.261719 120.878906 L 28.039062 118.667969 L 32.457031 118.226562 L 32.679688 120.4375 Z M 27.820312 116.457031 L 27.597656 114.25 L 32.015625 113.808594 L 32.238281 116.015625 Z M 27.378906 112.039062 L 27.15625 109.832031 L 31.574219 109.390625 L 31.796875 111.597656 Z M 26.933594 107.621094 L 26.714844 105.410156 L 31.132812 104.96875 L 31.355469 107.179688 Z M 26.492188 103.203125 L 26.273438 100.992188 L 30.691406 100.550781 L 30.914062 102.761719 Z M 26.050781 98.785156 L 25.832031 96.574219 L 30.25 96.132812 L 30.46875 98.34375 Z M 25.609375 94.363281 L 25.390625 92.15625 L 29.808594 91.714844 L 30.027344 93.921875 Z M 25.167969 89.945312 L 24.945312 87.738281 L 29.367188 87.296875 L 29.585938 89.503906 Z M 24.726562 85.527344 L 24.503906 83.316406 L 28.921875 82.875 L 29.144531 85.085938 Z M 24.285156 81.109375 L 24.0625 78.898438 L 28.480469 78.457031 L 28.703125 80.667969 Z M 23.84375 76.691406 L 23.621094 74.480469 L 28.039062 74.039062 L 28.261719 76.25 Z M 23.398438 72.269531 L 23.179688 70.0625 L 27.597656 69.621094 L 27.820312 71.828125 Z M 22.957031 67.851562 L 22.738281 65.644531 L 27.15625 65.203125 L 27.378906 67.410156 Z M 22.515625 63.433594 L 22.296875 61.222656 L 26.714844 60.78125 L 26.933594 62.992188 Z M 22.074219 59.015625 L 21.855469 56.804688 L 26.273438 56.363281 L 26.492188 58.574219 Z M 21.632812 54.597656 L 21.410156 52.386719 L 25.832031 51.945312 L 26.050781 54.15625 Z M 21.191406 50.175781 L 20.96875 47.96875 L 25.390625 47.527344 L 25.609375 49.734375 Z M 20.75 45.757812 L 20.527344 43.550781 L 24.945312 43.109375 L 25.167969 45.316406 Z M 20.308594 41.339844 L 20.085938 39.128906 L 24.503906 38.6875 L 24.726562 40.898438 Z M 19.867188 36.921875 L 19.644531 34.710938 L 24.0625 34.269531 L 24.285156 36.480469 Z M 19.421875 32.503906 L 19.203125 30.292969 L 23.621094 29.851562 L 23.84375 32.0625 Z M 18.980469 28.082031 L 18.761719 25.875 L 23.179688 25.433594 L 23.398438 27.640625 Z M 18.539062 23.664062 L 18.320312 21.457031 L 22.738281 21.015625 L 22.957031 23.222656 Z M 18.097656 19.246094 L 17.875 17.035156 L 22.296875 16.59375 L 22.515625 18.804688 Z M 17.65625 14.828125 L 17.433594 12.617188 L 21.855469 12.175781 L 22.074219 14.386719 Z M 17.214844 10.410156 L 16.992188 8.199219 L 21.410156 7.757812 L 21.632812 9.96875 Z M 16.773438 5.988281 L 16.550781 3.78125 L 20.96875 3.339844 L 21.191406 5.546875 Z M 16.332031 1.570312 L 16.292969 1.207031 L 18.503906 0.988281 L 20.710938 1.207031 L 20.492188 3.417969 L 16.074219 2.976562 L 16.292969 0.765625 L 20.710938 0.765625 L 20.75 1.128906 Z M 16.332031 1.570312 " fill-opacity="1" fill-rule="nonzero"/></g></g></svg>