<svg xmlns="http://www.w3.org/2000/svg" width="50" zoomAndPan="magnify" viewBox="0 0 37.5 187.500001" height="250" preserveAspectRatio="xMidYMid meet" version="1.0"><defs><clipPath id="0318d868ff"><path d="M 0 0.988281 L 37.007812 0.988281 L 37.007812 186.019531 L 0 186.019531 Z M 0 0.988281 " clip-rule="nonzero"/></clipPath><clipPath id="de53b58bad"><path d="M 18.503906 186.019531 L 37.007812 0.988281 L 0 0.988281 Z M 18.503906 186.019531 " clip-rule="nonzero"/></clipPath></defs><g clip-path="url(#0318d868ff)"><g clip-path="url(#de53b58bad)"><path fill="#00ff19" d="M 16.734375 181.378906 L 16.957031 179.171875 L 21.375 179.613281 L 21.15625 181.820312 Z M 17.175781 176.960938 L 17.398438 174.75 L 21.816406 175.195312 L 21.597656 177.402344 Z M 17.621094 172.542969 L 17.839844 170.332031 L 22.257812 170.773438 L 22.039062 172.984375 Z M 18.0625 168.125 L 18.28125 165.914062 L 22.699219 166.355469 L 22.480469 168.566406 Z M 18.503906 163.703125 L 18.722656 161.496094 L 23.144531 161.9375 L 22.921875 164.148438 Z M 18.945312 159.285156 L 19.167969 157.078125 L 23.585938 157.519531 L 23.363281 159.726562 Z M 19.386719 154.867188 L 19.609375 152.65625 L 24.027344 153.101562 L 23.804688 155.308594 Z M 19.828125 150.449219 L 20.050781 148.238281 L 24.46875 148.679688 L 24.246094 150.890625 Z M 20.269531 146.03125 L 20.492188 143.820312 L 24.910156 144.261719 L 24.691406 146.472656 Z M 20.710938 141.609375 L 20.933594 139.402344 L 25.351562 139.84375 L 25.132812 142.054688 Z M 21.15625 137.191406 L 21.375 134.984375 L 25.792969 135.425781 L 25.574219 137.632812 Z M 21.597656 132.773438 L 21.816406 130.5625 L 26.234375 131.007812 L 26.015625 133.214844 Z M 22.039062 128.355469 L 22.257812 126.144531 L 26.679688 126.585938 L 26.457031 128.796875 Z M 22.480469 123.9375 L 22.699219 121.726562 L 27.121094 122.167969 L 26.898438 124.378906 Z M 22.921875 119.515625 L 23.144531 117.308594 L 27.5625 117.75 L 27.339844 119.960938 Z M 23.363281 115.097656 L 23.585938 112.890625 L 28.003906 113.332031 L 27.78125 115.539062 Z M 23.804688 110.679688 L 24.027344 108.46875 L 28.445312 108.914062 L 28.222656 111.121094 Z M 24.246094 106.261719 L 24.46875 104.050781 L 28.886719 104.492188 L 28.667969 106.703125 Z M 24.691406 101.84375 L 24.910156 99.632812 L 29.328125 100.074219 L 29.109375 102.285156 Z M 25.132812 97.421875 L 25.351562 95.214844 L 29.769531 95.65625 L 29.550781 97.867188 Z M 25.574219 93.003906 L 25.792969 90.796875 L 30.214844 91.238281 L 29.992188 93.445312 Z M 26.015625 88.585938 L 26.234375 86.375 L 30.65625 86.820312 L 30.433594 89.027344 Z M 26.457031 84.167969 L 26.679688 81.957031 L 31.097656 82.398438 L 30.875 84.609375 Z M 26.898438 79.75 L 27.121094 77.539062 L 31.539062 77.980469 L 31.316406 80.191406 Z M 27.339844 75.328125 L 27.5625 73.121094 L 31.980469 73.5625 L 31.757812 75.773438 Z M 27.78125 70.910156 L 28.003906 68.703125 L 32.421875 69.144531 L 32.203125 71.351562 Z M 28.222656 66.492188 L 28.445312 64.28125 L 32.863281 64.726562 L 32.644531 66.933594 Z M 28.667969 62.074219 L 28.886719 59.863281 L 33.304688 60.304688 L 33.085938 62.515625 Z M 29.109375 57.65625 L 29.328125 55.445312 L 33.746094 55.886719 L 33.527344 58.097656 Z M 29.550781 53.234375 L 29.769531 51.027344 L 34.191406 51.46875 L 33.96875 53.679688 Z M 29.992188 48.816406 L 30.214844 46.609375 L 34.632812 47.050781 L 34.410156 49.257812 Z M 30.433594 44.398438 L 30.65625 42.1875 L 35.074219 42.632812 L 34.851562 44.839844 Z M 30.875 39.980469 L 31.097656 37.769531 L 35.515625 38.210938 L 35.292969 40.421875 Z M 31.316406 35.5625 L 31.539062 33.351562 L 35.957031 33.792969 L 35.738281 36.003906 Z M 31.757812 31.140625 L 31.980469 28.933594 L 36.398438 29.375 L 36.179688 31.585938 Z M 32.203125 26.722656 L 32.421875 24.515625 L 36.839844 24.957031 L 36.621094 27.164062 Z M 32.644531 22.304688 L 32.863281 20.09375 L 37.28125 20.539062 L 37.0625 22.746094 Z M 33.085938 17.886719 L 33.304688 15.675781 L 37.726562 16.117188 L 37.503906 18.328125 Z M 33.527344 13.46875 L 33.746094 11.257812 L 38.167969 11.699219 L 37.945312 13.910156 Z M 33.96875 9.046875 L 34.191406 6.839844 L 38.609375 7.28125 L 38.386719 9.492188 Z M 34.410156 4.628906 L 34.632812 2.421875 L 39.050781 2.863281 L 38.828125 5.070312 Z M 36.449219 3.207031 L 34.230469 3.207031 L 34.230469 -1.234375 L 36.449219 -1.234375 Z M 32.007812 3.207031 L 29.789062 3.207031 L 29.789062 -1.234375 L 32.007812 -1.234375 Z M 27.566406 3.207031 L 25.347656 3.207031 L 25.347656 -1.234375 L 27.566406 -1.234375 Z M 23.125 3.207031 L 20.90625 3.207031 L 20.90625 -1.234375 L 23.125 -1.234375 Z M 18.6875 3.207031 L 16.464844 3.207031 L 16.464844 -1.234375 L 18.6875 -1.234375 Z M 14.246094 3.207031 L 12.023438 3.207031 L 12.023438 -1.234375 L 14.246094 -1.234375 Z M 9.804688 3.207031 L 7.585938 3.207031 L 7.585938 -1.234375 L 9.804688 -1.234375 Z M 5.363281 3.207031 L 3.144531 3.207031 L 3.144531 -1.234375 L 5.363281 -1.234375 Z M 0.921875 3.207031 L 0 3.207031 L 0 0.988281 L 2.210938 0.765625 L 2.339844 2.058594 L -2.082031 2.5 L -2.453125 -1.234375 L 0.921875 -1.234375 Z M 2.558594 4.265625 L 2.78125 6.476562 L -1.636719 6.917969 L -1.859375 4.707031 Z M 3 8.683594 L 3.222656 10.894531 L -1.195312 11.335938 L -1.417969 9.128906 Z M 3.441406 13.105469 L 3.664062 15.3125 L -0.753906 15.753906 L -0.976562 13.546875 Z M 3.886719 17.523438 L 4.105469 19.730469 L -0.3125 20.175781 L -0.535156 17.964844 Z M 4.328125 21.941406 L 4.546875 24.152344 L 0.128906 24.59375 L -0.09375 22.382812 Z M 4.769531 26.359375 L 4.988281 28.570312 L 0.570312 29.011719 L 0.351562 26.800781 Z M 5.210938 30.777344 L 5.429688 32.988281 L 1.011719 33.429688 L 0.792969 31.222656 Z M 5.652344 35.199219 L 5.875 37.40625 L 1.453125 37.847656 L 1.234375 35.640625 Z M 6.09375 39.617188 L 6.316406 41.824219 L 1.898438 42.269531 L 1.675781 40.058594 Z M 6.535156 44.035156 L 6.757812 46.246094 L 2.339844 46.6875 L 2.117188 44.476562 Z M 6.976562 48.453125 L 7.199219 50.664062 L 2.78125 51.105469 L 2.558594 48.894531 Z M 7.421875 52.871094 L 7.640625 55.082031 L 3.222656 55.523438 L 3 53.316406 Z M 7.863281 57.292969 L 8.082031 59.5 L 3.664062 59.941406 L 3.441406 57.734375 Z M 8.304688 61.710938 L 8.523438 63.917969 L 4.105469 64.363281 L 3.886719 62.152344 Z M 8.746094 66.128906 L 8.964844 68.339844 L 4.546875 68.78125 L 4.328125 66.570312 Z M 9.1875 70.546875 L 9.410156 72.757812 L 4.988281 73.199219 L 4.769531 70.988281 Z M 9.628906 74.964844 L 9.851562 77.175781 L 5.429688 77.617188 L 5.210938 75.410156 Z M 10.070312 79.386719 L 10.292969 81.59375 L 5.875 82.035156 L 5.652344 79.828125 Z M 10.511719 83.804688 L 10.734375 86.011719 L 6.316406 86.457031 L 6.09375 84.246094 Z M 10.953125 88.222656 L 11.175781 90.433594 L 6.757812 90.875 L 6.535156 88.664062 Z M 11.398438 92.640625 L 11.617188 94.851562 L 7.199219 95.292969 L 6.976562 93.082031 Z M 11.839844 97.058594 L 12.058594 99.269531 L 7.640625 99.710938 L 7.421875 97.503906 Z M 12.28125 101.480469 L 12.5 103.6875 L 8.082031 104.128906 L 7.863281 101.921875 Z M 12.722656 105.898438 L 12.945312 108.105469 L 8.523438 108.550781 L 8.304688 106.339844 Z M 13.164062 110.316406 L 13.386719 112.527344 L 8.964844 112.96875 L 8.746094 110.757812 Z M 13.605469 114.734375 L 13.828125 116.945312 L 9.410156 117.386719 L 9.1875 115.175781 Z M 14.046875 119.152344 L 14.269531 121.363281 L 9.851562 121.804688 L 9.628906 119.597656 Z M 14.488281 123.574219 L 14.710938 125.78125 L 10.292969 126.222656 L 10.070312 124.015625 Z M 14.933594 127.992188 L 15.152344 130.199219 L 10.734375 130.644531 L 10.511719 128.433594 Z M 15.375 132.410156 L 15.59375 134.621094 L 11.175781 135.0625 L 10.953125 132.851562 Z M 15.816406 136.828125 L 16.035156 139.039062 L 11.617188 139.480469 L 11.398438 137.269531 Z M 16.257812 141.246094 L 16.476562 143.457031 L 12.058594 143.898438 L 11.839844 141.691406 Z M 16.699219 145.667969 L 16.921875 147.875 L 12.5 148.316406 L 12.28125 146.109375 Z M 17.140625 150.085938 L 17.363281 152.292969 L 12.945312 152.738281 L 12.722656 150.527344 Z M 17.582031 154.503906 L 17.804688 156.714844 L 13.386719 157.15625 L 13.164062 154.945312 Z M 18.023438 158.921875 L 18.246094 161.132812 L 13.828125 161.574219 L 13.605469 159.363281 Z M 18.46875 163.339844 L 18.6875 165.550781 L 14.269531 165.992188 L 14.046875 163.785156 Z M 18.910156 167.761719 L 19.128906 169.96875 L 14.710938 170.410156 L 14.488281 168.203125 Z M 19.351562 172.179688 L 19.570312 174.386719 L 15.152344 174.832031 L 14.933594 172.621094 Z M 19.792969 176.597656 L 20.011719 178.808594 L 15.59375 179.25 L 15.375 177.039062 Z M 20.234375 181.015625 L 20.457031 183.226562 L 16.035156 183.667969 L 15.816406 181.457031 Z M 20.675781 185.433594 L 20.710938 185.796875 L 18.503906 186.019531 L 16.292969 185.796875 L 16.515625 183.589844 L 20.933594 184.03125 L 20.710938 186.242188 L 16.292969 186.242188 L 16.257812 185.878906 Z M 20.675781 185.433594 " fill-opacity="1" fill-rule="nonzero"/></g></g></svg>