<svg xmlns="http://www.w3.org/2000/svg" width="845" zoomAndPan="magnify" viewBox="0 0 633.75 525.000007" height="700" preserveAspectRatio="xMidYMid meet" version="1.0"><defs><clipPath id="e8f9aac85f"><path d="M 0.476562 0 L 633.023438 0 L 633.023438 524 L 0.476562 524 Z M 0.476562 0 " clip-rule="nonzero"/></clipPath><clipPath id="436e154e53"><path d="M 19.191406 18.714844 L 269.964844 18.714844 L 269.964844 505.289062 L 19.191406 505.289062 Z M 19.191406 18.714844 " clip-rule="nonzero"/></clipPath><clipPath id="0c9ff49d6c"><path d="M 64.105469 18.714844 L 101.535156 18.714844 L 101.535156 205.859375 L 64.105469 205.859375 Z M 64.105469 18.714844 " clip-rule="nonzero"/></clipPath><clipPath id="fa72cf864a"><path d="M 82.820312 205.859375 L 101.535156 18.714844 L 64.105469 18.714844 Z M 82.820312 205.859375 " clip-rule="nonzero"/></clipPath><clipPath id="186d83df0f"><path d="M 105.277344 18.714844 L 142.707031 18.714844 L 142.707031 205.859375 L 105.277344 205.859375 Z M 105.277344 18.714844 " clip-rule="nonzero"/></clipPath><clipPath id="3709ab18cb"><path d="M 123.992188 205.859375 L 142.707031 18.714844 L 105.277344 18.714844 Z M 123.992188 205.859375 " clip-rule="nonzero"/></clipPath><clipPath id="1bdaf7aa5f"><path d="M 576.878906 18.714844 L 614.308594 18.714844 L 614.308594 220.828125 L 576.878906 220.828125 Z M 576.878906 18.714844 " clip-rule="nonzero"/></clipPath><clipPath id="2ba7600d1f"><path d="M 64.105469 318.144531 L 101.535156 318.144531 L 101.535156 505.289062 L 64.105469 505.289062 Z M 64.105469 318.144531 " clip-rule="nonzero"/></clipPath><clipPath id="b63dfbca50"><path d="M 82.820312 318.144531 L 101.535156 505.289062 L 64.105469 505.289062 Z M 82.820312 318.144531 " clip-rule="nonzero"/></clipPath><clipPath id="fbf84ae4a4"><path d="M 576.878906 303.171875 L 614.308594 303.171875 L 614.308594 505.289062 L 576.878906 505.289062 Z M 576.878906 303.171875 " clip-rule="nonzero"/></clipPath><clipPath id="bbc426d0c1"><path d="M 146.449219 18.714844 L 183.878906 18.714844 L 183.878906 205.859375 L 146.449219 205.859375 Z M 146.449219 18.714844 " clip-rule="nonzero"/></clipPath><clipPath id="79301ad206"><path d="M 165.164062 205.859375 L 183.878906 18.714844 L 146.449219 18.714844 Z M 165.164062 205.859375 " clip-rule="nonzero"/></clipPath><clipPath id="bd6bfaab42"><path d="M 22.933594 18.714844 L 60.363281 18.714844 L 60.363281 205.859375 L 22.933594 205.859375 Z M 22.933594 18.714844 " clip-rule="nonzero"/></clipPath><clipPath id="97137a3995"><path d="M 41.648438 205.859375 L 60.363281 18.714844 L 22.933594 18.714844 Z M 41.648438 205.859375 " clip-rule="nonzero"/></clipPath><clipPath id="7de700518c"><path d="M 187.621094 18.714844 L 225.050781 18.714844 L 225.050781 205.859375 L 187.621094 205.859375 Z M 187.621094 18.714844 " clip-rule="nonzero"/></clipPath><clipPath id="206959fde3"><path d="M 206.335938 205.859375 L 225.050781 18.714844 L 187.621094 18.714844 Z M 206.335938 205.859375 " clip-rule="nonzero"/></clipPath><clipPath id="252c5139b7"><path d="M 228.792969 18.714844 L 266.222656 18.714844 L 266.222656 205.859375 L 228.792969 205.859375 Z M 228.792969 18.714844 " clip-rule="nonzero"/></clipPath><clipPath id="b53ecf2fa5"><path d="M 247.507812 205.859375 L 266.222656 18.714844 L 228.792969 18.714844 Z M 247.507812 205.859375 " clip-rule="nonzero"/></clipPath><clipPath id="b05b5b7731"><path d="M 307.394531 18.714844 L 558.164062 18.714844 L 558.164062 505.289062 L 307.394531 505.289062 Z M 307.394531 18.714844 " clip-rule="nonzero"/></clipPath><clipPath id="9941084254"><path d="M 352.308594 18.714844 L 389.734375 18.714844 L 389.734375 205.859375 L 352.308594 205.859375 Z M 352.308594 18.714844 " clip-rule="nonzero"/></clipPath><clipPath id="b022113400"><path d="M 371.023438 205.859375 L 389.734375 18.714844 L 352.308594 18.714844 Z M 371.023438 205.859375 " clip-rule="nonzero"/></clipPath><clipPath id="76a4a736df"><path d="M 393.480469 18.714844 L 430.90625 18.714844 L 430.90625 205.859375 L 393.480469 205.859375 Z M 393.480469 18.714844 " clip-rule="nonzero"/></clipPath><clipPath id="177ecd4f1e"><path d="M 412.195312 205.859375 L 430.90625 18.714844 L 393.480469 18.714844 Z M 412.195312 205.859375 " clip-rule="nonzero"/></clipPath><clipPath id="333567ca75"><path d="M 516.992188 18.714844 L 554.421875 18.714844 L 554.421875 205.859375 L 516.992188 205.859375 Z M 516.992188 18.714844 " clip-rule="nonzero"/></clipPath><clipPath id="bf696f3464"><path d="M 535.707031 205.859375 L 554.421875 18.714844 L 516.992188 18.714844 Z M 535.707031 205.859375 " clip-rule="nonzero"/></clipPath><clipPath id="9f19e54200"><path d="M 311.136719 18.714844 L 348.566406 18.714844 L 348.566406 205.859375 L 311.136719 205.859375 Z M 311.136719 18.714844 " clip-rule="nonzero"/></clipPath><clipPath id="ea2fbbaec3"><path d="M 329.851562 205.859375 L 348.566406 18.714844 L 311.136719 18.714844 Z M 329.851562 205.859375 " clip-rule="nonzero"/></clipPath><clipPath id="0d09994443"><path d="M 475.820312 18.714844 L 513.25 18.714844 L 513.25 205.859375 L 475.820312 205.859375 Z M 475.820312 18.714844 " clip-rule="nonzero"/></clipPath><clipPath id="1a071740c7"><path d="M 494.535156 205.859375 L 513.25 18.714844 L 475.820312 18.714844 Z M 494.535156 205.859375 " clip-rule="nonzero"/></clipPath><clipPath id="62c3406717"><path d="M 434.652344 18.714844 L 472.078125 18.714844 L 472.078125 205.859375 L 434.652344 205.859375 Z M 434.652344 18.714844 " clip-rule="nonzero"/></clipPath><clipPath id="d0837c65ec"><path d="M 453.363281 205.859375 L 472.078125 18.714844 L 434.652344 18.714844 Z M 453.363281 205.859375 " clip-rule="nonzero"/></clipPath><clipPath id="54ad3a9005"><path d="M 22.933594 318.144531 L 60.363281 318.144531 L 60.363281 505.289062 L 22.933594 505.289062 Z M 22.933594 318.144531 " clip-rule="nonzero"/></clipPath><clipPath id="64d453b1c8"><path d="M 41.648438 318.144531 L 60.363281 505.289062 L 22.933594 505.289062 Z M 41.648438 318.144531 " clip-rule="nonzero"/></clipPath><clipPath id="c92abfcf1b"><path d="M 146.449219 318.144531 L 183.878906 318.144531 L 183.878906 505.289062 L 146.449219 505.289062 Z M 146.449219 318.144531 " clip-rule="nonzero"/></clipPath><clipPath id="f267c628ee"><path d="M 165.164062 318.144531 L 183.878906 505.289062 L 146.449219 505.289062 Z M 165.164062 318.144531 " clip-rule="nonzero"/></clipPath><clipPath id="efbb322263"><path d="M 105.277344 318.144531 L 142.707031 318.144531 L 142.707031 505.289062 L 105.277344 505.289062 Z M 105.277344 318.144531 " clip-rule="nonzero"/></clipPath><clipPath id="74f125999f"><path d="M 123.992188 318.144531 L 142.707031 505.289062 L 105.277344 505.289062 Z M 123.992188 318.144531 " clip-rule="nonzero"/></clipPath><clipPath id="d7f08bd2a7"><path d="M 228.792969 318.144531 L 266.222656 318.144531 L 266.222656 505.289062 L 228.792969 505.289062 Z M 228.792969 318.144531 " clip-rule="nonzero"/></clipPath><clipPath id="5de44fdf0a"><path d="M 247.507812 318.144531 L 266.222656 505.289062 L 228.792969 505.289062 Z M 247.507812 318.144531 " clip-rule="nonzero"/></clipPath><clipPath id="d4a2d8236b"><path d="M 187.621094 318.144531 L 225.050781 318.144531 L 225.050781 505.289062 L 187.621094 505.289062 Z M 187.621094 318.144531 " clip-rule="nonzero"/></clipPath><clipPath id="1a955c884a"><path d="M 206.335938 318.144531 L 225.050781 505.289062 L 187.621094 505.289062 Z M 206.335938 318.144531 " clip-rule="nonzero"/></clipPath><clipPath id="c368f2b4a3"><path d="M 352.308594 318.144531 L 389.734375 318.144531 L 389.734375 505.289062 L 352.308594 505.289062 Z M 352.308594 318.144531 " clip-rule="nonzero"/></clipPath><clipPath id="d3c76330ca"><path d="M 371.023438 318.144531 L 389.734375 505.289062 L 352.308594 505.289062 Z M 371.023438 318.144531 " clip-rule="nonzero"/></clipPath><clipPath id="736118cd99"><path d="M 311.136719 318.144531 L 348.566406 318.144531 L 348.566406 505.289062 L 311.136719 505.289062 Z M 311.136719 318.144531 " clip-rule="nonzero"/></clipPath><clipPath id="86b81f1831"><path d="M 329.851562 318.144531 L 348.566406 505.289062 L 311.136719 505.289062 Z M 329.851562 318.144531 " clip-rule="nonzero"/></clipPath><clipPath id="69452538cc"><path d="M 434.652344 318.144531 L 472.078125 318.144531 L 472.078125 505.289062 L 434.652344 505.289062 Z M 434.652344 318.144531 " clip-rule="nonzero"/></clipPath><clipPath id="7153b53b31"><path d="M 453.363281 318.144531 L 472.078125 505.289062 L 434.652344 505.289062 Z M 453.363281 318.144531 " clip-rule="nonzero"/></clipPath><clipPath id="57794fa41a"><path d="M 393.480469 318.144531 L 430.90625 318.144531 L 430.90625 505.289062 L 393.480469 505.289062 Z M 393.480469 318.144531 " clip-rule="nonzero"/></clipPath><clipPath id="708b94a02c"><path d="M 412.195312 318.144531 L 430.90625 505.289062 L 393.480469 505.289062 Z M 412.195312 318.144531 " clip-rule="nonzero"/></clipPath><clipPath id="088339f50f"><path d="M 516.992188 318.144531 L 554.421875 318.144531 L 554.421875 505.289062 L 516.992188 505.289062 Z M 516.992188 318.144531 " clip-rule="nonzero"/></clipPath><clipPath id="23c8f54604"><path d="M 535.707031 318.144531 L 554.421875 505.289062 L 516.992188 505.289062 Z M 535.707031 318.144531 " clip-rule="nonzero"/></clipPath><clipPath id="276bd0fbbf"><path d="M 475.820312 318.144531 L 513.25 318.144531 L 513.25 505.289062 L 475.820312 505.289062 Z M 475.820312 318.144531 " clip-rule="nonzero"/></clipPath><clipPath id="174d5d80b8"><path d="M 494.535156 318.144531 L 513.25 505.289062 L 475.820312 505.289062 Z M 494.535156 318.144531 " clip-rule="nonzero"/></clipPath></defs><g clip-path="url(#e8f9aac85f)"><path fill="#ffffff" d="M 0.476562 0 L 633.023438 0 L 633.023438 524 L 0.476562 524 Z M 0.476562 0 " fill-opacity="1" fill-rule="nonzero"/><path fill="#824711" d="M 0.476562 0 L 633.023438 0 L 633.023438 524 L 0.476562 524 Z M 0.476562 0 " fill-opacity="1" fill-rule="nonzero"/></g><g clip-path="url(#436e154e53)"><path fill="#e6ba70" d="M 19.191406 18.714844 L 269.964844 18.714844 L 269.964844 505.566406 L 19.191406 505.566406 Z M 19.191406 18.714844 " fill-opacity="1" fill-rule="nonzero"/></g><g clip-path="url(#0c9ff49d6c)"><g clip-path="url(#fa72cf864a)"><path fill="#4d2a0a" d="M 64.105469 18.714844 L 101.535156 18.714844 L 101.535156 205.859375 L 64.105469 205.859375 Z M 64.105469 18.714844 " fill-opacity="1" fill-rule="nonzero"/></g></g><g clip-path="url(#186d83df0f)"><g clip-path="url(#3709ab18cb)"><path fill="#a25b1b" d="M 105.277344 18.714844 L 142.707031 18.714844 L 142.707031 205.859375 L 105.277344 205.859375 Z M 105.277344 18.714844 " fill-opacity="1" fill-rule="nonzero"/></g></g><g clip-path="url(#1bdaf7aa5f)"><path fill="#e6ba70" d="M 576.878906 18.714844 L 614.308594 18.714844 L 614.308594 220.769531 L 576.878906 220.769531 Z M 576.878906 18.714844 " fill-opacity="1" fill-rule="nonzero"/></g><g clip-path="url(#2ba7600d1f)"><g clip-path="url(#b63dfbca50)"><path fill="#a25b1b" d="M 64.105469 318.144531 L 101.535156 318.144531 L 101.535156 505.289062 L 64.105469 505.289062 Z M 64.105469 318.144531 " fill-opacity="1" fill-rule="nonzero"/></g></g><g clip-path="url(#fbf84ae4a4)"><path fill="#e6ba70" d="M 576.878906 303.171875 L 614.308594 303.171875 L 614.308594 505.230469 L 576.878906 505.230469 Z M 576.878906 303.171875 " fill-opacity="1" fill-rule="nonzero"/></g><g clip-path="url(#bbc426d0c1)"><g clip-path="url(#79301ad206)"><path fill="#4d2a0a" d="M 146.449219 18.714844 L 183.878906 18.714844 L 183.878906 205.859375 L 146.449219 205.859375 Z M 146.449219 18.714844 " fill-opacity="1" fill-rule="nonzero"/></g></g><g clip-path="url(#bd6bfaab42)"><g clip-path="url(#97137a3995)"><path fill="#a25b1b" d="M 22.933594 18.714844 L 60.363281 18.714844 L 60.363281 205.859375 L 22.933594 205.859375 Z M 22.933594 18.714844 " fill-opacity="1" fill-rule="nonzero"/></g></g><g clip-path="url(#7de700518c)"><g clip-path="url(#206959fde3)"><path fill="#a25b1b" d="M 187.621094 18.714844 L 225.050781 18.714844 L 225.050781 205.859375 L 187.621094 205.859375 Z M 187.621094 18.714844 " fill-opacity="1" fill-rule="nonzero"/></g></g><g clip-path="url(#252c5139b7)"><g clip-path="url(#b53ecf2fa5)"><path fill="#4d2a0a" d="M 228.792969 18.714844 L 266.222656 18.714844 L 266.222656 205.859375 L 228.792969 205.859375 Z M 228.792969 18.714844 " fill-opacity="1" fill-rule="nonzero"/></g></g><g clip-path="url(#b05b5b7731)"><path fill="#e6ba70" d="M 307.394531 18.714844 L 558.164062 18.714844 L 558.164062 505.566406 L 307.394531 505.566406 Z M 307.394531 18.714844 " fill-opacity="1" fill-rule="nonzero"/></g><g clip-path="url(#9941084254)"><g clip-path="url(#b022113400)"><path fill="#4d2a0a" d="M 352.308594 18.714844 L 389.734375 18.714844 L 389.734375 205.859375 L 352.308594 205.859375 Z M 352.308594 18.714844 " fill-opacity="1" fill-rule="nonzero"/></g></g><g clip-path="url(#76a4a736df)"><g clip-path="url(#177ecd4f1e)"><path fill="#a25b1b" d="M 393.480469 18.714844 L 430.90625 18.714844 L 430.90625 205.859375 L 393.480469 205.859375 Z M 393.480469 18.714844 " fill-opacity="1" fill-rule="nonzero"/></g></g><g clip-path="url(#333567ca75)"><g clip-path="url(#bf696f3464)"><path fill="#4d2a0a" d="M 516.992188 18.714844 L 554.421875 18.714844 L 554.421875 205.859375 L 516.992188 205.859375 Z M 516.992188 18.714844 " fill-opacity="1" fill-rule="nonzero"/></g></g><g clip-path="url(#9f19e54200)"><g clip-path="url(#ea2fbbaec3)"><path fill="#a25b1b" d="M 311.136719 18.714844 L 348.566406 18.714844 L 348.566406 205.859375 L 311.136719 205.859375 Z M 311.136719 18.714844 " fill-opacity="1" fill-rule="nonzero"/></g></g><g clip-path="url(#0d09994443)"><g clip-path="url(#1a071740c7)"><path fill="#a25b1b" d="M 475.820312 18.714844 L 513.25 18.714844 L 513.25 205.859375 L 475.820312 205.859375 Z M 475.820312 18.714844 " fill-opacity="1" fill-rule="nonzero"/></g></g><g clip-path="url(#62c3406717)"><g clip-path="url(#d0837c65ec)"><path fill="#4d2a0a" d="M 434.652344 18.714844 L 472.078125 18.714844 L 472.078125 205.859375 L 434.652344 205.859375 Z M 434.652344 18.714844 " fill-opacity="1" fill-rule="nonzero"/></g></g><g clip-path="url(#54ad3a9005)"><g clip-path="url(#64d453b1c8)"><path fill="#4d2a0a" d="M 22.933594 318.144531 L 60.363281 318.144531 L 60.363281 505.289062 L 22.933594 505.289062 Z M 22.933594 318.144531 " fill-opacity="1" fill-rule="nonzero"/></g></g><g clip-path="url(#c92abfcf1b)"><g clip-path="url(#f267c628ee)"><path fill="#a25b1b" d="M 146.449219 318.144531 L 183.878906 318.144531 L 183.878906 505.289062 L 146.449219 505.289062 Z M 146.449219 318.144531 " fill-opacity="1" fill-rule="nonzero"/></g></g><g clip-path="url(#efbb322263)"><g clip-path="url(#74f125999f)"><path fill="#4d2a0a" d="M 105.277344 318.144531 L 142.707031 318.144531 L 142.707031 505.289062 L 105.277344 505.289062 Z M 105.277344 318.144531 " fill-opacity="1" fill-rule="nonzero"/></g></g><g clip-path="url(#d7f08bd2a7)"><g clip-path="url(#5de44fdf0a)"><path fill="#a25b1b" d="M 228.792969 318.144531 L 266.222656 318.144531 L 266.222656 505.289062 L 228.792969 505.289062 Z M 228.792969 318.144531 " fill-opacity="1" fill-rule="nonzero"/></g></g><g clip-path="url(#d4a2d8236b)"><g clip-path="url(#1a955c884a)"><path fill="#4d2a0a" d="M 187.621094 318.144531 L 225.050781 318.144531 L 225.050781 505.289062 L 187.621094 505.289062 Z M 187.621094 318.144531 " fill-opacity="1" fill-rule="nonzero"/></g></g><g clip-path="url(#c368f2b4a3)"><g clip-path="url(#d3c76330ca)"><path fill="#a25b1b" d="M 352.308594 318.144531 L 389.734375 318.144531 L 389.734375 505.289062 L 352.308594 505.289062 Z M 352.308594 318.144531 " fill-opacity="1" fill-rule="nonzero"/></g></g><g clip-path="url(#736118cd99)"><g clip-path="url(#86b81f1831)"><path fill="#4d2a0a" d="M 311.136719 318.144531 L 348.566406 318.144531 L 348.566406 505.289062 L 311.136719 505.289062 Z M 311.136719 318.144531 " fill-opacity="1" fill-rule="nonzero"/></g></g><g clip-path="url(#69452538cc)"><g clip-path="url(#7153b53b31)"><path fill="#a25b1b" d="M 434.652344 318.144531 L 472.078125 318.144531 L 472.078125 505.289062 L 434.652344 505.289062 Z M 434.652344 318.144531 " fill-opacity="1" fill-rule="nonzero"/></g></g><g clip-path="url(#57794fa41a)"><g clip-path="url(#708b94a02c)"><path fill="#4d2a0a" d="M 393.480469 318.144531 L 430.90625 318.144531 L 430.90625 505.289062 L 393.480469 505.289062 Z M 393.480469 318.144531 " fill-opacity="1" fill-rule="nonzero"/></g></g><g clip-path="url(#088339f50f)"><g clip-path="url(#23c8f54604)"><path fill="#a25b1b" d="M 516.992188 318.144531 L 554.421875 318.144531 L 554.421875 505.289062 L 516.992188 505.289062 Z M 516.992188 318.144531 " fill-opacity="1" fill-rule="nonzero"/></g></g><g clip-path="url(#276bd0fbbf)"><g clip-path="url(#174d5d80b8)"><path fill="#4d2a0a" d="M 475.820312 318.144531 L 513.25 318.144531 L 513.25 505.289062 L 475.820312 505.289062 Z M 475.820312 318.144531 " fill-opacity="1" fill-rule="nonzero"/></g></g></svg>